<svg xmlns="http://www.w3.org/2000/svg" viewBox="0 0 72 72" width="72" height="72" preserveAspectRatio="xMidYMid meet" style="width: 100%; height: 100%; transform: translate3d(0px, 0px, 0px);"><defs><clipPath id="__lottie_element_467"><rect width="72" height="72" x="0" y="0"></rect></clipPath><clipPath id="__lottie_element_469"><path d="M0,0 L31,0 L31,31 L0,31z"></path></clipPath></defs><g clip-path="url(#__lottie_element_467)"><g clip-path="url(#__lottie_element_469)" transform="matrix(1,0,0,1,19.625,20.5)" opacity="1" style="display: block;"><g transform="matrix(1,0,0,1,27.74799919128418,16.035999298095703)" opacity="1" style="display: block;"><g opacity="1" transform="matrix(1,0,0,1,0,0)"></g><g opacity="1" transform="matrix(1,0,0,1,-11.97599983215332,-0.03400000184774399)"><path fill="rgb(255,255,255)" fill-opacity="1" d=" M-1.25,-4.2870001792907715 C-1.25,-3.9119999408721924 -1.3550000190734863,-3.5450000762939453 -1.5540000200271606,-3.2269999980926514 C-1.5540000200271606,-3.2269999980926514 -3.494999885559082,-0.12200000137090683 -3.494999885559082,-0.12200000137090683 C-3.888000011444092,0.5070000290870667 -4.5,0.968999981880188 -5.214000225067139,1.1729999780654907 C-5.214000225067139,1.1729999780654907 -7.25,1.753999948501587 -7.25,1.753999948501587 C-7.25,1.753999948501587 -7.25,6.5 -7.25,6.5 C-6.133999824523926,6.505000114440918 -5.025000095367432,6.686999797821045 -3.9660000801086426,7.039999961853027 C-3.9660000801086426,7.039999961853027 -2.4730000495910645,7.538000106811523 -2.4730000495910645,7.538000106811523 C-1.5549999475479126,7.843999862670898 -0.593999981880188,8 0.37299999594688416,8 C0.37299999594688416,8 4.25,8 4.25,8 C5.078000068664551,8 5.75,7.328000068664551 5.75,6.5 C5.75,6.5 5.75,6.000999927520752 5.75,6.000999927520752 C5.75,6.000999927520752 6.14900016784668,5.701000213623047 6.14900016784668,5.701000213623047 C6.515999794006348,5.426000118255615 6.75,4.989999771118164 6.75,4.5 C6.75,4.4070000648498535 6.742000102996826,4.316999912261963 6.72599983215332,4.230000019073486 C6.72599983215332,4.230000019073486 6.644999980926514,3.7850000858306885 6.644999980926514,3.7850000858306885 C6.644999980926514,3.7850000858306885 6.926000118255615,3.430999994277954 6.926000118255615,3.430999994277954 C7.129000186920166,3.174999952316284 7.25,2.8529999256134033 7.25,2.5 C7.25,2.1470000743865967 7.129000186920166,1.8250000476837158 6.926000118255615,1.569000005722046 C6.926000118255615,1.569000005722046 6.644999980926514,1.215000033378601 6.644999980926514,1.215000033378601 C6.644999980926514,1.215000033378601 6.72599983215332,0.7699999809265137 6.72599983215332,0.7699999809265137 C6.742000102996826,0.6830000281333923 6.75,0.5929999947547913 6.75,0.5 C6.75,-0.328000009059906 6.078000068664551,-1 5.25,-1 C5.25,-1 1.180999994277954,-1 1.180999994277954,-1 C1.180999994277954,-1 1.503999948501587,-2.25 1.503999948501587,-2.25 C1.6480000019073486,-2.808000087738037 1.75,-3.4149999618530273 1.75,-4 C1.75,-4.7729997634887695 1.5729999542236328,-5.7729997634887695 1.3569999933242798,-6.689000129699707 C1.1779999732971191,-7.447000026702881 0.4650000035762787,-8 -0.41200000047683716,-8 C-0.41200000047683716,-8 -1.25,-8 -1.25,-8 C-1.25,-8 -1.25,-4.2870001792907715 -1.25,-4.2870001792907715z M-3.25,-8.5 C-3.25,-9.32800006866455 -2.578000068664551,-10 -1.75,-10 C-1.75,-10 -0.41200000047683716,-10 -0.41200000047683716,-10 C1.2929999828338623,-10 2.890000104904175,-8.902999877929688 3.303999900817871,-7.1479997634887695 C3.5290000438690186,-6.193999767303467 3.75,-5.011000156402588 3.75,-4 C3.75,-3.6600000858306885 3.7249999046325684,-3.3239998817443848 3.684000015258789,-3 C3.684000015258789,-3 5.25,-3 5.25,-3 C7.183000087738037,-3 8.75,-1.4329999685287476 8.75,0.5 C8.75,0.5630000233650208 8.748000144958496,0.6259999871253967 8.744999885559082,0.6880000233650208 C9.0649995803833,1.2170000076293945 9.25,1.8380000591278076 9.25,2.5 C9.25,3.1619999408721924 9.0649995803833,3.7829999923706055 8.744999885559082,4.311999797821045 C8.748000144958496,4.374000072479248 8.75,4.436999797821045 8.75,4.5 C8.75,5.4710001945495605 8.354000091552734,6.349999904632568 7.7170000076293945,6.982999801635742 C7.48199987411499,8.687999725341797 6.019000053405762,10 4.25,10 C4.25,10 0.37299999594688416,10 0.37299999594688416,10 C-0.8090000152587891,10 -1.9839999675750732,9.8100004196167 -3.1059999465942383,9.435999870300293 C-3.1059999465942383,9.435999870300293 -4.598999977111816,8.937999725341797 -4.598999977111816,8.937999725341797 C-5.468999862670898,8.64799976348877 -6.380000114440918,8.5 -7.296999931335449,8.5 C-8.37600040435791,8.5 -9.25,7.625999927520752 -9.25,6.546999931335449 C-9.25,6.546999931335449 -9.25,1.753999948501587 -9.25,1.753999948501587 C-9.25,0.8610000014305115 -8.657999992370605,0.07599999755620956 -7.798999786376953,-0.16899999976158142 C-7.798999786376953,-0.16899999976158142 -5.763999938964844,-0.75 -5.763999938964844,-0.75 C-5.526000022888184,-0.8180000185966492 -5.322000026702881,-0.972000002861023 -5.190999984741211,-1.1820000410079956 C-5.190999984741211,-1.1820000410079956 -3.25,-4.2870001792907715 -3.25,-4.2870001792907715 C-3.25,-4.2870001792907715 -3.25,-8.5 -3.25,-8.5z"></path></g></g><g style="display: none;"><g></g><g><path></path></g></g><g style="display: none;"><g><path></path></g></g></g></g></svg>